<?xml version="1.0" encoding="UTF-8" standalone="no"?>
<svg
   version="1.1"
   width="32"
   height="32"
   shape-rendering="crispEdges"
   id="svg119"
   sodipodi:docname="brick.svg"
   inkscape:version="1.3 (0e150ed6c4, 2023-07-21)"
   xmlns:inkscape="http://www.inkscape.org/namespaces/inkscape"
   xmlns:sodipodi="http://sodipodi.sourceforge.net/DTD/sodipodi-0.dtd"
   xmlns="http://www.w3.org/2000/svg"
   xmlns:svg="http://www.w3.org/2000/svg">
  <defs
     id="defs119" />
  <sodipodi:namedview
     id="namedview119"
     pagecolor="#ffffff"
     bordercolor="#666666"
     borderopacity="1.0"
     inkscape:showpageshadow="2"
     inkscape:pageopacity="0.0"
     inkscape:pagecheckerboard="0"
     inkscape:deskcolor="#d1d1d1"
     inkscape:zoom="26.980543"
     inkscape:cx="23.887584"
     inkscape:cy="23.257501"
     inkscape:window-width="5054"
     inkscape:window-height="1417"
     inkscape:window-x="58"
     inkscape:window-y="1432"
     inkscape:window-maximized="1"
     inkscape:current-layer="svg119" />
  <g
     id="g270">
    <path
       d="m 12,6 v 1 h 1 1 1 V 6 h -1 -1 z"
       style=""
       id="path247" />
    <path
       d="m 11,8 h 1 V 7 h -1 z"
       style=""
       id="path246" />
    <path
       d="m 15,7 v 1 h 1 1 1 V 7 h -1 -1 z"
       style=""
       id="path248" />
    <path
       d="m 18,8 v 1 h 1 1 v 1 h 1 v 1 1 1 1 h 1 v -1 h 1 1 V 12 H 23 22 V 11 10 9 H 21 V 8 h -1 -1 z"
       style=""
       id="path253" />
    <path
       d="m 12,10 v 1 h 1 1 v -1 h -1 z"
       style=""
       id="path249" />
    <path
       d="m 20,10 h -1 v 1 h 1 z"
       style=""
       id="path252" />
    <path
       d="M 10,8 V 9 H 9 v 1 1 H 8 v 1 h 1 v 1 h 1 v -1 -1 -1 h 1 1 V 9 H 11 V 8 Z"
       style=""
       id="path245" />
    <path
       d="m 14,11 v 1 h 1 v -1 z"
       style=""
       id="path250" />
    <path
       d="m 17,11 v 1 h 1 1 v -1 h -1 z"
       style=""
       id="path251" />
    <path
       d="M 7,13 H 8 V 12 H 7 Z"
       style=""
       id="path244" />
    <path
       d="m 10,13 v 1 h 1 1 1 v -1 h -1 -1 z"
       style=""
       id="path238" />
    <path
       d="m 24,13 v 1 1 1 1 1 h 1 1 1 v -1 h -1 -1 v -1 -1 -1 -1 z"
       style=""
       id="path254" />
    <path
       d="m 13,14 v 1 1 1 1 1 h -1 v 1 h 1 1 1 v -1 h -1 v -1 -1 -1 -1 h 1 1 v -1 h -1 -1 z"
       style=""
       id="path239" />
    <path
       d="m 19,14 v 1 h 1 1 v -1 h -1 z"
       style=""
       id="path261" />
    <path
       d="m 6,13 v 1 1 1 h 1 v -1 -1 -1 z"
       style=""
       id="path243" />
    <path
       d="M 5,17 H 6 V 16 H 5 Z"
       style=""
       id="path268" />
    <path
       d="m 7,16 v 1 h 1 v -1 z"
       style=""
       id="path242" />
    <path
       d="m 8,17 v 1 h 1 1 V 17 H 9 Z"
       style=""
       id="path241" />
    <path
       d="m 16,15 v 1 h 1 1 v 1 1 h 1 v -1 -1 -1 h -1 -1 z"
       style=""
       id="path262" />
    <path
       d="m 10,18 v 1 h 1 1 v -1 h -1 z"
       style=""
       id="path240" />
    <path
       d="m 27,18 v 1 1 1 1 h 1 v -1 -1 -1 -1 z"
       style=""
       id="path255" />
    <path
       d="m 22,18 v 1 h -1 v 1 h 1 1 v -1 h 1 v -1 h -1 z"
       style=""
       id="path270" />
    <path
       d="m 4,17 v 1 1 1 1 h 1 v -1 -1 -1 -1 z"
       style=""
       id="path267" />
    <path
       d="m 15,20 v 1 h 1 v 1 1 1 h -1 -1 v 1 h 1 1 1 v -1 -1 -1 -1 h 1 1 1 v 1 1 h 1 v -1 -1 -1 h -1 -1 -1 -1 -1 z"
       style=""
       id="path269" />
    <path
       d="m 5,21 v 1 H 6 7 8 V 21 H 7 6 Z"
       style=""
       id="path266" />
    <path
       d="m 10,20 v 1 1 H 9 8 v 1 h 1 1 1 v -1 -1 -1 z"
       style=""
       id="path265" />
    <path
       d="m 27,22 h -1 v 1 h 1 z"
       style=""
       id="path256" />
    <path
       d="m 11,23 v 1 h 1 1 1 v -1 h -1 -1 z"
       style=""
       id="path264" />
    <path
       d="m 26,23 h -1 v 1 h 1 z"
       style=""
       id="path257" />
    <path
       d="m 25,24 h -1 v 1 h 1 z"
       style=""
       id="path258" />
    <path
       d="m 17,25 v 1 h 1 1 1 v -1 h -1 -1 z"
       style=""
       id="path263" />
    <path
       d="m 24,25 h -1 v 1 h 1 z"
       style=""
       id="path259" />
    <path
       d="m 21,23 v 1 1 1 h -1 v 1 h 1 1 1 v -1 h -1 v -1 -1 -1 z"
       style=""
       id="path260" />
  </g>
</svg>
