<?xml version="1.0" encoding="UTF-8" standalone="no"?>
<svg
   version="1.1"
   width="32"
   height="32"
   shape-rendering="crispEdges"
   id="svg137"
   sodipodi:docname="furs.svg"
   inkscape:version="1.3 (0e150ed6c4, 2023-07-21)"
   xmlns:inkscape="http://www.inkscape.org/namespaces/inkscape"
   xmlns:sodipodi="http://sodipodi.sourceforge.net/DTD/sodipodi-0.dtd"
   xmlns="http://www.w3.org/2000/svg"
   xmlns:svg="http://www.w3.org/2000/svg">
  <defs
     id="defs137" />
  <sodipodi:namedview
     id="namedview137"
     pagecolor="#ffffff"
     bordercolor="#666666"
     borderopacity="1.0"
     inkscape:showpageshadow="2"
     inkscape:pageopacity="0.0"
     inkscape:pagecheckerboard="0"
     inkscape:deskcolor="#d1d1d1"
     inkscape:zoom="38.15625"
     inkscape:cx="16"
     inkscape:cy="13.903358"
     inkscape:window-width="5054"
     inkscape:window-height="1417"
     inkscape:window-x="58"
     inkscape:window-y="1432"
     inkscape:window-maximized="1"
     inkscape:current-layer="svg137" />
  <g
     id="g177">
    <path
       d="m 13,4 v 1 h 1 V 4 Z"
       style=""
       id="path177" />
    <path
       d="m 18,5 h 1 V 4 h -1 z"
       style=""
       id="path164" />
    <path
       d="m 14,5 v 1 1 h 1 v 1 1 1 1 1 h 1 v 1 1 h -1 v 1 1 h 1 v 1 1 1 h 1 v -1 -1 -1 -1 h 1 V 14 13 H 17 V 12 11 10 9 8 h 1 V 7 6 5 H 17 V 6 H 16 15 V 5 Z"
       style=""
       id="path165" />
    <path
       d="m 12,5 v 1 h -1 v 1 1 h 1 V 7 h 1 V 6 5 Z"
       style=""
       id="path176" />
    <path
       d="m 19,5 v 1 1 h 1 v 1 h 1 V 7 6 H 20 V 5 Z"
       style=""
       id="path163" />
    <path
       d="m 10,9 h 1 V 8 h -1 z"
       style=""
       id="path175" />
    <path
       d="m 13,8 v 1 h 1 V 8 Z"
       style=""
       id="path168" />
    <path
       d="m 18,8 v 1 h 1 V 8 Z"
       style=""
       id="path169" />
    <path
       d="m 21,8 v 1 h 1 V 8 Z"
       style=""
       id="path162" />
    <path
       d="M 6,8 V 9 H 5 v 1 1 h 1 v -1 h 1 1 1 1 V 9 H 9 8 V 8 H 7 Z"
       style=""
       id="path137" />
    <path
       d="m 24,8 v 1 h -1 -1 v 1 h 1 1 1 1 v 1 h 1 V 10 9 H 26 V 8 h -1 z"
       style=""
       id="path161" />
    <path
       d="m 6,11 v 1 1 h 1 v -1 -1 z"
       style=""
       id="path138" />
    <path
       d="m 14,13 v -1 h -1 v 1 z"
       style=""
       id="path167" />
    <path
       d="m 18,13 h 1 v -1 h -1 z"
       style=""
       id="path170" />
    <path
       d="m 25,11 v 1 1 h 1 v -1 -1 z"
       style=""
       id="path160" />
    <path
       d="M 8,14 V 13 H 7 v 1 z"
       style=""
       id="path139" />
    <path
       d="m 10,13 v 1 h 1 v -1 z"
       style=""
       id="path171" />
    <path
       d="m 15,14 v -1 h -1 v 1 z"
       style=""
       id="path166" />
    <path
       d="m 25,13 h -1 v 1 h 1 z"
       style=""
       id="path159" />
    <path
       d="m 8,14 v 1 1 1 1 1 1 h 1 v -1 -1 -1 -1 -1 -1 z"
       style=""
       id="path140" />
    <path
       d="m 21,14 v 1 h 1 v -1 z"
       style=""
       id="path156" />
    <path
       d="m 11,15 v 1 1 1 1 h 1 v -1 -1 -1 -1 z"
       style=""
       id="path172" />
    <path
       d="m 10,19 v 1 1 h 1 v -1 -1 z"
       style=""
       id="path173" />
    <path
       d="m 20,16 v 1 1 1 1 h 1 v -1 -1 -1 -1 z"
       style=""
       id="path155" />
    <path
       d="m 23,14 v 1 1 1 1 1 1 h 1 v -1 -1 -1 -1 -1 -1 z"
       style=""
       id="path158" />
    <path
       d="m 7,20 v 1 1 h 1 v -1 -1 z"
       style=""
       id="path141" />
    <path
       d="m 22,21 v -1 h -1 v 1 z"
       style=""
       id="path154" />
    <path
       d="M 10,21 H 9 v 1 h 1 z"
       style=""
       id="path174" />
    <path
       d="m 24,20 v 1 1 h 1 v -1 -1 z"
       style=""
       id="path157" />
    <path
       d="m 6,22 v 1 1 h 1 v -1 -1 z"
       style=""
       id="path142" />
    <path
       d="m 22,21 v 1 1 h 1 v -1 -1 z"
       style=""
       id="path153" />
    <path
       d="m 8,23 v 1 h 1 1 v 1 h 1 1 1 1 V 24 H 13 12 V 23 H 11 10 9 Z"
       style=""
       id="path145" />
    <path
       d="m 24,24 v -1 h -1 v 1 z"
       style=""
       id="path152" />
    <path
       d="m 5,24 v 1 1 h 1 v 1 H 7 8 9 V 26 H 8 7 V 25 H 6 v -1 z"
       style=""
       id="path143" />
    <path
       d="m 18,24 v 1 h 1 1 1 1 v -1 h -1 -1 -1 z"
       style=""
       id="path149" />
    <path
       d="M 10,25 H 9 v 1 h 1 z"
       style=""
       id="path144" />
    <path
       d="m 14,25 v 1 1 h 1 v -1 -1 z"
       style=""
       id="path146" />
    <path
       d="m 23,26 v -1 h -1 v 1 z"
       style=""
       id="path150" />
    <path
       d="m 17,25 v 1 1 h 1 v -1 -1 z"
       style=""
       id="path148" />
    <path
       d="m 25,22 v 1 1 h -1 v 1 h 1 v 1 h -1 -1 v 1 h 1 1 1 v -1 h 1 v -1 -1 h -1 v -1 -1 z"
       style=""
       id="path151" />
    <path
       d="m 15,27 v 1 h 1 1 v -1 h -1 z"
       style=""
       id="path147" />
  </g>
</svg>
