<?xml version="1.0" encoding="UTF-8" standalone="no"?>
<svg
   version="1.1"
   width="32"
   height="32"
   shape-rendering="crispEdges"
   id="svg149"
   sodipodi:docname="grain.svg"
   inkscape:version="1.3 (0e150ed6c4, 2023-07-21)"
   xmlns:inkscape="http://www.inkscape.org/namespaces/inkscape"
   xmlns:sodipodi="http://sodipodi.sourceforge.net/DTD/sodipodi-0.dtd"
   xmlns="http://www.w3.org/2000/svg"
   xmlns:svg="http://www.w3.org/2000/svg">
  <defs
     id="defs149" />
  <sodipodi:namedview
     id="namedview149"
     pagecolor="#ffffff"
     bordercolor="#666666"
     borderopacity="1.0"
     inkscape:showpageshadow="2"
     inkscape:pageopacity="0.0"
     inkscape:pagecheckerboard="0"
     inkscape:deskcolor="#d1d1d1"
     inkscape:zoom="38.15625"
     inkscape:cx="16"
     inkscape:cy="18.096642"
     inkscape:window-width="5054"
     inkscape:window-height="1417"
     inkscape:window-x="58"
     inkscape:window-y="1432"
     inkscape:window-maximized="1"
     inkscape:current-layer="svg149" />
  <g
     id="g186">
    <path
       d="M 10,6 V 7 H 9 8 V 8 H 7 v 1 h 1 v 1 1 H 9 V 10 9 8 h 1 1 V 7 h 1 1 V 6 h -1 -1 z"
       style=""
       id="path171" />
    <path
       d="m 12,9 h 1 V 8 h -1 z"
       style=""
       id="path178" />
    <path
       d="m 14,9 h 1 V 8 h -1 z"
       style=""
       id="path179" />
    <path
       d="m 6,9 v 1 1 1 1 1 h 1 v 1 1 H 8 V 15 H 9 V 14 H 8 V 13 H 7 V 12 11 10 9 Z"
       style=""
       id="path149" />
    <path
       d="M 12,10 V 9 h -1 v 1 z"
       style=""
       id="path175" />
    <path
       d="m 13,9 v 1 h 1 V 9 Z"
       style=""
       id="path177" />
    <path
       d="M 17,10 V 9 h -1 v 1 z"
       style=""
       id="path182" />
    <path
       d="m 18,10 h 1 V 9 h -1 z"
       style=""
       id="path185" />
    <path
       d="M 21,10 V 9 h -1 v 1 z"
       style=""
       id="path186" />
    <path
       d="m 10,11 h 1 v -1 h -1 z"
       style=""
       id="path174" />
    <path
       d="m 12,11 h 1 v -1 h -1 z"
       style=""
       id="path176" />
    <path
       d="m 14,10 v 1 h 1 v -1 z"
       style=""
       id="path180" />
    <path
       d="m 18,11 v -1 h -1 v 1 z"
       style=""
       id="path183" />
    <path
       d="m 13,5 v 1 h 1 1 1 1 1 v 1 h 1 1 1 v 1 h 1 v 1 h 1 v 1 1 h 1 V 10 9 h 1 V 8 H 24 V 7 H 23 22 V 6 H 21 20 19 V 5 h -1 -1 -1 -1 -1 z"
       style=""
       id="path170" />
    <path
       d="m 9,11 v 1 h 1 v -1 z"
       style=""
       id="path173" />
    <path
       d="m 14,11 h -1 v 1 h 1 z"
       style=""
       id="path181" />
    <path
       d="m 19,12 v -1 h -1 v 1 z"
       style=""
       id="path184" />
    <path
       d="m 11,11 v 1 h -1 v 1 h 1 1 v -1 -1 z"
       style=""
       id="path172" />
    <path
       d="m 21,10 v 1 h -1 v 1 h -1 v 1 h 1 1 1 v -1 h 1 v -1 h -1 v -1 z"
       style=""
       id="path169" />
    <path
       d="m 12,13 v 1 h 1 1 1 1 1 1 1 v -1 h -1 -1 -1 -1 -1 -1 z"
       style=""
       id="path168" />
    <path
       d="m 9,15 v 1 h 1 1 v -1 h -1 z"
       style=""
       id="path150" />
    <path
       d="m 6,16 v 1 1 h 1 v -1 -1 z"
       style=""
       id="path154" />
    <path
       d="m 11,16 v 1 h 1 v -1 z"
       style=""
       id="path151" />
    <path
       d="m 13,16 v 1 h 1 v -1 z"
       style=""
       id="path153" />
    <path
       d="m 25,9 v 1 1 1 1 h -1 v 1 h -1 v 1 h -1 -1 -1 v 1 h -1 -1 -1 -1 v 1 h 1 1 v 1 1 h 1 v -1 -1 h 1 v 1 1 h 1 v 1 1 1 1 h 1 v -1 -1 h 1 v -1 h -1 v -1 -1 -1 h 1 v -1 h 1 1 v -1 -1 h 1 V 13 12 11 10 9 Z"
       style=""
       id="path152" />
    <path
       d="m 23,17 v 1 1 1 h 1 v -1 -1 -1 z"
       style=""
       id="path165" />
    <path
       d="m 25,16 v 1 1 h 1 v -1 -1 z"
       style=""
       id="path164" />
    <path
       d="m 5,18 v 1 1 1 1 h 1 v -1 -1 -1 -1 z"
       style=""
       id="path155" />
    <path
       d="m 26,18 v 1 1 1 1 h 1 v -1 -1 -1 -1 z"
       style=""
       id="path163" />
    <path
       d="m 4,22 v 1 1 1 h 1 v -1 -1 -1 z"
       style=""
       id="path156" />
    <path
       d="m 19,19 v 1 1 1 1 h 1 v -1 -1 -1 -1 z"
       style=""
       id="path167" />
    <path
       d="m 21,23 h -1 v 1 h 1 z"
       style=""
       id="path166" />
    <path
       d="m 27,22 v 1 1 1 h 1 v -1 -1 -1 z"
       style=""
       id="path162" />
    <path
       d="m 5,25 v 1 H 6 7 8 V 25 H 7 6 Z"
       style=""
       id="path157" />
    <path
       d="m 24,25 v 1 h 1 1 1 v -1 h -1 -1 z"
       style=""
       id="path161" />
    <path
       d="m 8,26 v 1 h 1 1 1 V 26 H 10 9 Z"
       style=""
       id="path158" />
    <path
       d="m 21,26 v 1 h 1 1 1 v -1 h -1 -1 z"
       style=""
       id="path160" />
    <path
       d="m 11,27 v 1 h 1 1 1 1 1 1 1 1 1 1 v -1 h -1 -1 -1 -1 -1 -1 -1 -1 -1 z"
       style=""
       id="path159" />
  </g>
</svg>
