<?xml version="1.0" encoding="UTF-8" standalone="no"?>
<svg
   version="1.1"
   width="32"
   height="32"
   shape-rendering="crispEdges"
   id="svg128"
   sodipodi:docname="herbs.svg"
   inkscape:version="1.3 (0e150ed6c4, 2023-07-21)"
   xmlns:inkscape="http://www.inkscape.org/namespaces/inkscape"
   xmlns:sodipodi="http://sodipodi.sourceforge.net/DTD/sodipodi-0.dtd"
   xmlns="http://www.w3.org/2000/svg"
   xmlns:svg="http://www.w3.org/2000/svg">
  <defs
     id="defs128" />
  <sodipodi:namedview
     id="namedview128"
     pagecolor="#ffffff"
     bordercolor="#666666"
     borderopacity="1.0"
     inkscape:showpageshadow="2"
     inkscape:pageopacity="0.0"
     inkscape:pagecheckerboard="0"
     inkscape:deskcolor="#d1d1d1"
     inkscape:zoom="38.15625"
     inkscape:cx="14.768223"
     inkscape:cy="16.982801"
     inkscape:window-width="2527"
     inkscape:window-height="1440"
     inkscape:window-x="66"
     inkscape:window-y="1440"
     inkscape:window-maximized="0"
     inkscape:current-layer="svg128" />
  <g
     id="g167">
    <path
       d="m 13,4 v 1 h 1 V 4 Z"
       style=""
       id="path154" />
    <path
       d="m 16,5 h 1 V 4 h -1 z"
       style=""
       id="path155" />
    <path
       d="m 12,5 v 1 1 1 1 h 1 V 8 7 6 5 Z"
       style=""
       id="path128" />
    <path
       d="m 19,6 v 1 1 1 h 1 V 8 7 6 Z"
       style=""
       id="path156" />
    <path
       d="m 14,5 v 1 h 1 v 1 1 1 h -1 -1 v 1 1 1 1 h 1 v -1 h 1 1 1 1 v 1 h -1 -1 -1 -1 v 1 h 1 v 1 1 1 1 h 1 v -1 -1 -1 -1 h 1 1 v 1 1 h 1 1 v -1 h -1 v -1 h 1 v -1 h -1 v -1 h 1 1 V 11 H 20 19 V 10 9 H 18 V 8 7 6 h 1 V 5 H 18 17 V 6 7 8 9 H 16 V 8 7 6 5 h -1 z m 0,5 h 1 1 1 1 v 1 h -1 -1 -1 -1 z"
       style=""
       id="path157" />
    <path
       d="m 22,9 v 1 h -1 v 1 h 1 1 V 10 9 Z"
       style=""
       id="path129" />
    <path
       d="m 21,12 v 1 h 1 1 v -1 h -1 z"
       style=""
       id="path130" />
    <path
       d="m 13,14 v -1 h -1 v 1 z"
       style=""
       id="path153" />
    <path
       d="m 11,15 h 1 v -1 h -1 z"
       style=""
       id="path152" />
    <path
       d="m 13,15 h 1 v -1 h -1 z"
       style=""
       id="path147" />
    <path
       d="m 20,14 v 1 h 1 1 v -1 h -1 z"
       style=""
       id="path131" />
    <path
       d="m 10,16 h 1 v -1 h -1 z"
       style=""
       id="path151" />
    <path
       d="m 12,15 v 1 h -1 v 1 1 h 1 v -1 h 1 v -1 -1 z"
       style=""
       id="path148" />
    <path
       d="m 23,16 v -1 h -1 v 1 z"
       style=""
       id="path134" />
    <path
       d="m 9,17 h 1 V 16 H 9 Z"
       style=""
       id="path150" />
    <path
       d="m 20,16 v 1 h 1 v -1 z"
       style=""
       id="path132" />
    <path
       d="m 23,16 v 1 h -1 -1 v 1 h 1 v 1 h 1 v -1 h 1 v -1 -1 z"
       style=""
       id="path133" />
    <path
       d="m 8,17 v 1 1 h 1 v 1 h 1 v -1 h 1 V 18 H 10 9 v -1 z"
       style=""
       id="path149" />
    <path
       d="m 13,20 h 1 v -1 h -1 z"
       style=""
       id="path158" />
    <path
       d="m 20,19 v 1 h 1 v 1 h 1 v 1 h 1 v -1 h 1 v -1 -1 h -1 v 1 h -1 v -1 h -1 z"
       style=""
       id="path135" />
    <path
       d="m 12,20 v 1 1 h 1 v -1 -1 z"
       style=""
       id="path159" />
    <path
       d="m 16,18 v 1 1 1 h 1 v -1 -1 -1 z"
       style=""
       id="path146" />
    <path
       d="m 18,20 v 1 h 1 v -1 z"
       style=""
       id="path144" />
    <path
       d="m 8,20 v 1 1 h 1 1 V 21 H 9 v -1 z"
       style=""
       id="path167" />
    <path
       d="m 16,21 h -1 v 1 h 1 z"
       style=""
       id="path145" />
    <path
       d="m 10,23 h 1 v -1 h -1 z"
       style=""
       id="path166" />
    <path
       d="m 13,23 h 1 v -1 h -1 z"
       style=""
       id="path160" />
    <path
       d="m 19,21 v 1 1 h 1 v -1 -1 z"
       style=""
       id="path143" />
    <path
       d="m 23,22 v 1 1 h 1 v -1 -1 z"
       style=""
       id="path136" />
    <path
       d="m 12,23 v 1 1 h -1 v 1 h 1 v 1 h 1 1 v -1 h -1 v -1 -1 -1 z"
       style=""
       id="path161" />
    <path
       d="m 15,23 v 1 h 1 v -1 z"
       style=""
       id="path164" />
    <path
       d="m 22,24 v -1 h -1 v 1 z"
       style=""
       id="path139" />
    <path
       d="m 9,23 v 1 1 h 1 1 v -1 h -1 v -1 z"
       style=""
       id="path165" />
    <path
       d="m 23,24 h -1 v 1 h 1 z"
       style=""
       id="path137" />
    <path
       d="m 15,26 v -1 h -1 v 1 z"
       style=""
       id="path162" />
    <path
       d="m 20,26 v -1 h -1 v 1 z"
       style=""
       id="path141" />
    <path
       d="m 22,25 h -1 v 1 h 1 z"
       style=""
       id="path140" />
    <path
       d="m 15,26 v 1 1 h 1 1 v -1 h -1 v -1 z"
       style=""
       id="path163" />
    <path
       d="m 21,26 h -1 v 1 h 1 z"
       style=""
       id="path138" />
    <path
       d="m 17,22 v 1 1 1 1 1 h 1 v 1 h 1 v -1 -1 h -1 v -1 -1 -1 -1 z"
       style=""
       id="path142" />
  </g>
</svg>
