<?xml version="1.0" encoding="UTF-8" standalone="no"?>
<svg
   version="1.1"
   width="32"
   height="32"
   shape-rendering="crispEdges"
   id="svg129"
   sodipodi:docname="livestock.svg"
   inkscape:version="1.3 (0e150ed6c4, 2023-07-21)"
   xmlns:inkscape="http://www.inkscape.org/namespaces/inkscape"
   xmlns:sodipodi="http://sodipodi.sourceforge.net/DTD/sodipodi-0.dtd"
   xmlns="http://www.w3.org/2000/svg"
   xmlns:svg="http://www.w3.org/2000/svg">
  <defs
     id="defs129" />
  <sodipodi:namedview
     id="namedview129"
     pagecolor="#ffffff"
     bordercolor="#666666"
     borderopacity="1.0"
     inkscape:showpageshadow="2"
     inkscape:pageopacity="0.0"
     inkscape:pagecheckerboard="0"
     inkscape:deskcolor="#d1d1d1"
     inkscape:zoom="38.15625"
     inkscape:cx="15.292383"
     inkscape:cy="17.009009"
     inkscape:window-width="2525"
     inkscape:window-height="1408"
     inkscape:window-x="59"
     inkscape:window-y="1440"
     inkscape:window-maximized="0"
     inkscape:current-layer="svg129" />
  <g
     id="g167">
    <path
       d="m 18,6 v 1 h 1 1 1 1 V 6 h -1 -1 -1 z"
       style=""
       id="path153" />
    <path
       d="m 8,7 v 1 h 1 1 1 1 1 V 7 H 12 11 10 9 Z"
       style=""
       id="path135" />
    <path
       d="m 14,7 v 1 h 1 1 1 1 V 7 h -1 -1 -1 z"
       style=""
       id="path152" />
    <path
       d="m 22,7 v 1 h 1 1 V 7 h -1 z"
       style=""
       id="path154" />
    <path
       d="M 7,9 H 8 V 8 H 7 Z"
       style=""
       id="path136" />
    <path
       d="m 13,8 v 1 h 1 V 8 Z"
       style=""
       id="path134" />
    <path
       d="m 24,8 v 1 h 1 V 8 Z"
       style=""
       id="path155" />
    <path
       d="M 6,10 H 7 V 9 H 6 Z"
       style=""
       id="path137" />
    <path
       d="m 21,9 v 1 h 1 1 V 9 h -1 z"
       style=""
       id="path164" />
    <path
       d="m 25,9 v 1 h 1 V 9 Z"
       style=""
       id="path156" />
    <path
       d="M 5,11 H 6 V 10 H 5 Z"
       style=""
       id="path138" />
    <path
       d="m 14,9 v 1 1 h 1 V 10 9 Z"
       style=""
       id="path133" />
    <path
       d="m 23,10 v 1 h 1 v -1 z"
       style=""
       id="path163" />
    <path
       d="m 26,10 v 1 h 1 v -1 z"
       style=""
       id="path157" />
    <path
       d="m 4,11 v 1 1 h 1 1 v 1 H 7 V 13 12 H 6 5 v -1 z"
       style=""
       id="path140" />
    <path
       d="M 7,12 H 8 V 11 H 7 Z"
       style=""
       id="path139" />
    <path
       d="m 15,11 v 1 h 1 v -1 z"
       style=""
       id="path132" />
    <path
       d="m 27,11 v 1 1 1 1 1 1 h 1 v -1 -1 -1 -1 -1 -1 z"
       style=""
       id="path158" />
    <path
       d="m 10,13 v 1 1 h 1 v -1 -1 z"
       style=""
       id="path151" />
    <path
       d="m 14,14 v -1 h -1 v 1 z"
       style=""
       id="path129" />
    <path
       d="m 16,12 v 1 1 h 1 v -1 -1 z"
       style=""
       id="path131" />
    <path
       d="m 19,13 v 1 h 1 v -1 z"
       style=""
       id="path166" />
    <path
       d="m 23,13 v 1 h 1 v -1 z"
       style=""
       id="path162" />
    <path
       d="m 5,14 v 1 1 1 h 1 v -1 -1 -1 z"
       style=""
       id="path141" />
    <path
       d="m 14,14 v 1 h 1 1 v -1 h -1 z"
       style=""
       id="path130" />
    <path
       d="m 19,14 h -1 v 1 h 1 z"
       style=""
       id="path167" />
    <path
       d="m 20,14 v 1 h 1 v -1 z"
       style=""
       id="path165" />
    <path
       d="m 24,14 v 1 1 h 1 v -1 -1 z"
       style=""
       id="path161" />
    <path
       d="M 7,18 V 17 H 6 v 1 z"
       style=""
       id="path142" />
    <path
       d="m 18,18 v -1 h -1 v 1 z"
       style=""
       id="path149" />
    <path
       d="m 19,18 h 1 v -1 h -1 z"
       style=""
       id="path150" />
    <path
       d="m 26,17 v 1 1 h 1 v -1 -1 z"
       style=""
       id="path159" />
    <path
       d="m 10,17 v 1 H 9 8 7 v 1 h 1 v 1 h 1 v 1 h 1 v -1 -1 h 1 v -1 h 1 v -1 h -1 z"
       style=""
       id="path143" />
    <path
       d="m 19,19 v -1 h -1 v 1 z"
       style=""
       id="path148" />
    <path
       d="m 23,18 v 1 1 h -1 v 1 h 1 v 1 1 1 1 h 1 1 1 v -1 -1 -1 -1 -1 -1 h -1 v 1 1 1 1 1 h -1 v -1 -1 -1 -1 -1 -1 z"
       style=""
       id="path160" />
    <path
       d="m 11,21 h 1 v -1 h -1 z"
       style=""
       id="path145" />
    <path
       d="m 11,22 v -1 h -1 v 1 z"
       style=""
       id="path144" />
    <path
       d="m 15,20 v 1 1 h -1 -1 v -1 h -1 v 1 h -1 v 1 1 1 1 1 h 1 1 v -1 h -1 v -1 h 1 v 1 h 1 v -1 -1 -1 h 1 v 1 1 1 1 1 h 1 1 1 v -1 -1 -1 -1 -1 h -1 v 1 1 1 1 h -1 v -1 -1 -1 -1 -1 -1 -1 z"
       style=""
       id="path146" />
    <path
       d="m 19,19 v 1 1 1 h -1 v 1 h 1 v 1 h 1 1 1 v -1 -1 -1 h -1 -1 v -1 -1 z"
       style=""
       id="path147" />
  </g>
</svg>
