<?xml version="1.0" encoding="UTF-8" standalone="no"?>
<svg
   version="1.1"
   width="32"
   height="32"
   shape-rendering="crispEdges"
   id="svg130"
   sodipodi:docname="ore.svg"
   inkscape:version="1.3 (0e150ed6c4, 2023-07-21)"
   xmlns:inkscape="http://www.inkscape.org/namespaces/inkscape"
   xmlns:sodipodi="http://sodipodi.sourceforge.net/DTD/sodipodi-0.dtd"
   xmlns="http://www.w3.org/2000/svg"
   xmlns:svg="http://www.w3.org/2000/svg">
  <defs
     id="defs130" />
  <sodipodi:namedview
     id="namedview130"
     pagecolor="#ffffff"
     bordercolor="#666666"
     borderopacity="1.0"
     inkscape:showpageshadow="2"
     inkscape:pageopacity="0.0"
     inkscape:pagecheckerboard="0"
     inkscape:deskcolor="#d1d1d1"
     inkscape:zoom="38.15625"
     inkscape:cx="16"
     inkscape:cy="15.986896"
     inkscape:window-width="2525"
     inkscape:window-height="1408"
     inkscape:window-x="59"
     inkscape:window-y="1440"
     inkscape:window-maximized="0"
     inkscape:current-layer="svg130" />
  <g
     id="g174">
    <path
       d="m 18,6 v 1 h 1 1 1 1 1 V 6 h -1 -1 -1 -1 z"
       style=""
       id="path138" />
    <path
       d="m 17,8 h 1 V 7 h -1 z"
       style=""
       id="path137" />
    <path
       d="m 23,7 v 1 h 1 V 7 Z"
       style=""
       id="path139" />
    <path
       d="m 11,8 v 1 h 1 1 1 V 8 h -1 -1 z"
       style=""
       id="path135" />
    <path
       d="m 16,9 h 1 V 8 h -1 z"
       style=""
       id="path136" />
    <path
       d="m 24,8 v 1 h -1 v 1 h 1 v 1 1 1 h 1 V 12 11 10 9 8 Z"
       style=""
       id="path140" />
    <path
       d="m 9,9 v 1 h 1 1 V 9 h -1 z"
       style=""
       id="path134" />
    <path
       d="M 8,11 H 9 V 10 H 8 Z"
       style=""
       id="path133" />
    <path
       d="m 21,10 v 1 h 1 1 v -1 h -1 z"
       style=""
       id="path141" />
    <path
       d="m 14,9 v 1 h 1 v 1 h -1 v 1 h -1 -1 v 1 h 1 1 1 v -1 h 1 1 1 V 11 H 17 16 V 10 9 h -1 z"
       style=""
       id="path130" />
    <path
       d="m 19,11 v 1 1 h 1 v -1 h 1 v -1 h -1 z"
       style=""
       id="path142" />
    <path
       d="m 7,11 v 1 1 1 1 1 H 8 V 15 14 13 H 9 V 12 H 8 v -1 z"
       style=""
       id="path132" />
    <path
       d="m 9,13 v 1 h 1 1 1 v -1 h -1 -1 z"
       style=""
       id="path131" />
    <path
       d="m 20,13 v 1 1 h 1 v -1 -1 z"
       style=""
       id="path143" />
    <path
       d="m 20,15 h -1 v 1 h 1 z"
       style=""
       id="path144" />
    <path
       d="m 6,16 v 1 1 1 1 H 7 V 19 H 8 V 18 H 7 v -1 -1 z"
       style=""
       id="path148" />
    <path
       d="m 12,15 v 1 1 h 1 v -1 -1 z"
       style=""
       id="path147" />
    <path
       d="m 17,16 v 1 h 1 1 v -1 h -1 z"
       style=""
       id="path145" />
    <path
       d="m 8,17 v 1 h 1 1 1 V 17 H 10 9 Z"
       style=""
       id="path149" />
    <path
       d="m 13,17 v 1 h 1 1 1 v -1 h -1 -1 z"
       style=""
       id="path146" />
    <path
       d="m 20,17 v 1 h 1 v -1 z"
       style=""
       id="path167" />
    <path
       d="m 11,18 v 1 1 h 1 v 1 h 1 v -1 -1 h -1 v -1 z"
       style=""
       id="path150" />
    <path
       d="m 21,18 v 1 h 1 1 v -1 h -1 z"
       style=""
       id="path168" />
    <path
       d="m 25,13 v 1 h -1 -1 v 1 h 1 1 1 v 1 1 h -1 v 1 h -1 v 1 h 1 v 1 h 1 v -1 h 1 v -1 -1 -1 -1 -1 h -1 v -1 z"
       style=""
       id="path169" />
    <path
       d="M 8,21 V 20 H 7 v 1 z"
       style=""
       id="path152" />
    <path
       d="m 22,20 v 1 h 1 1 1 v -1 h -1 -1 z"
       style=""
       id="path164" />
    <path
       d="m 8,21 v 1 h 1 1 V 21 H 9 Z"
       style=""
       id="path153" />
    <path
       d="m 13,21 v 1 h 1 1 v -1 h -1 z"
       style=""
       id="path151" />
    <path
       d="m 18,22 h 1 v -1 h -1 z"
       style=""
       id="path158" />
    <path
       d="m 21,22 h 1 v -1 h -1 z"
       style=""
       id="path165" />
    <path
       d="m 25,21 v 1 h 1 v -1 z"
       style=""
       id="path163" />
    <path
       d="m 5,22 v 1 H 6 7 8 V 22 H 7 6 Z"
       style=""
       id="path173" />
    <path
       d="m 11,23 v -1 h -1 v 1 z"
       style=""
       id="path154" />
    <path
       d="m 16,22 v 1 h 1 1 v -1 h -1 z"
       style=""
       id="path157" />
    <path
       d="m 20,23 h 1 v -1 h -1 z"
       style=""
       id="path166" />
    <path
       d="m 8,23 v 1 h 1 v -1 z"
       style=""
       id="path174" />
    <path
       d="m 11,23 v 1 h 1 1 v -1 h -1 z"
       style=""
       id="path155" />
    <path
       d="m 18,23 v 1 h 1 v 1 1 h 1 v -1 -1 -1 h -1 z"
       style=""
       id="path159" />
    <path
       d="m 4,23 v 1 1 h 1 v -1 -1 z"
       style=""
       id="path172" />
    <path
       d="m 9,24 v 1 H 8 v 1 H 7 6 v 1 h 1 1 1 v -1 h 1 v -1 -1 z"
       style=""
       id="path170" />
    <path
       d="m 13,24 v 1 h 1 1 1 1 1 v -1 h -1 -1 -1 -1 z"
       style=""
       id="path156" />
    <path
       d="m 26,22 v 1 1 1 h 1 v -1 -1 -1 z"
       style=""
       id="path162" />
    <path
       d="M 6,26 V 25 H 5 v 1 z"
       style=""
       id="path171" />
    <path
       d="m 26,25 h -1 v 1 h 1 z"
       style=""
       id="path161" />
    <path
       d="m 20,26 v 1 h 1 1 1 1 1 v -1 h -1 -1 -1 -1 z"
       style=""
       id="path160" />
  </g>
</svg>
