<?xml version="1.0" encoding="UTF-8" standalone="no"?>
<svg
   version="1.1"
   width="32"
   height="32"
   shape-rendering="crispEdges"
   id="svg137"
   sodipodi:docname="spices.svg"
   inkscape:version="1.3 (0e150ed6c4, 2023-07-21)"
   xmlns:inkscape="http://www.inkscape.org/namespaces/inkscape"
   xmlns:sodipodi="http://sodipodi.sourceforge.net/DTD/sodipodi-0.dtd"
   xmlns="http://www.w3.org/2000/svg"
   xmlns:svg="http://www.w3.org/2000/svg">
  <defs
     id="defs137" />
  <sodipodi:namedview
     id="namedview137"
     pagecolor="#ffffff"
     bordercolor="#666666"
     borderopacity="1.0"
     inkscape:showpageshadow="2"
     inkscape:pageopacity="0.0"
     inkscape:pagecheckerboard="0"
     inkscape:deskcolor="#d1d1d1"
     inkscape:zoom="38.15625"
     inkscape:cx="16"
     inkscape:cy="15.986896"
     inkscape:window-width="2525"
     inkscape:window-height="1408"
     inkscape:window-x="59"
     inkscape:window-y="1440"
     inkscape:window-maximized="0"
     inkscape:current-layer="svg137" />
  <g
     id="g192">
    <path
       d="m 24,4 v 1 h 1 1 1 V 4 h -1 -1 z"
       style=""
       id="path165" />
    <path
       d="m 23,6 h 1 V 5 h -1 z"
       style=""
       id="path166" />
    <path
       d="m 22,7 h 1 V 6 h -1 z"
       style=""
       id="path167" />
    <path
       d="m 14,7 v 1 h 1 1 1 1 V 7 h -1 -1 -1 z"
       style=""
       id="path188" />
    <path
       d="m 21,8 h 1 V 7 h -1 z"
       style=""
       id="path168" />
    <path
       d="m 27,5 v 1 1 1 h 1 V 7 6 5 Z"
       style=""
       id="path164" />
    <path
       d="m 12,8 v 1 h 1 1 V 8 h -1 z"
       style=""
       id="path187" />
    <path
       d="m 18,8 v 1 h 1 v 1 h 1 V 9 h 1 V 8 h -1 -1 z"
       style=""
       id="path189" />
    <path
       d="m 27,8 h -1 v 1 h 1 z"
       style=""
       id="path163" />
    <path
       d="m 26,9 h -1 v 1 h 1 z"
       style=""
       id="path162" />
    <path
       d="m 7,10 v 1 H 8 9 V 10 H 8 Z"
       style=""
       id="path139" />
    <path
       d="m 9,9 v 1 h 1 1 v 1 h 1 V 10 9 h -1 -1 z"
       style=""
       id="path138" />
    <path
       d="m 19,10 h -1 v 1 h 1 z"
       style=""
       id="path169" />
    <path
       d="M 7,11 H 6 v 1 h 1 z"
       style=""
       id="path140" />
    <path
       d="m 9,11 v 1 h 1 1 v -1 h -1 z"
       style=""
       id="path137" />
    <path
       d="m 17,11 v 1 1 1 h 1 v -1 -1 -1 z"
       style=""
       id="path170" />
    <path
       d="m 24,10 v 1 h -1 v 1 1 h 1 v 1 1 1 h 1 v -1 -1 -1 -1 h 1 v -1 h -1 v -1 z"
       style=""
       id="path161" />
    <path
       d="M 6,12 H 5 v 1 h 1 z"
       style=""
       id="path141" />
    <path
       d="M 8,13 H 9 V 12 H 8 Z"
       style=""
       id="path186" />
    <path
       d="m 27,13 v -1 h -1 v 1 z"
       style=""
       id="path160" />
    <path
       d="m 4,13 v 1 1 1 1 1 1 1 H 5 V 19 18 H 6 V 17 H 5 v -1 -1 -1 -1 z"
       style=""
       id="path142" />
    <path
       d="m 23,13 h -1 v 1 h 1 z"
       style=""
       id="path172" />
    <path
       d="m 12,15 h 1 v -1 h -1 z"
       style=""
       id="path180" />
    <path
       d="m 14,15 h 1 v -1 h -1 z"
       style=""
       id="path178" />
    <path
       d="m 19,14 v 1 h 1 1 1 v -1 h -1 -1 z"
       style=""
       id="path171" />
    <path
       d="m 7,13 v 1 1 1 h 1 v -1 -1 -1 z"
       style=""
       id="path185" />
    <path
       d="m 12,16 v -1 h -1 v 1 z"
       style=""
       id="path181" />
    <path
       d="m 13,15 v 1 h 1 v -1 z"
       style=""
       id="path179" />
    <path
       d="m 15,15 v 1 h 1 v -1 z"
       style=""
       id="path177" />
    <path
       d="M 9,17 V 16 H 8 v 1 z"
       style=""
       id="path184" />
    <path
       d="m 12,17 h 1 v -1 h -1 z"
       style=""
       id="path182" />
    <path
       d="m 15,16 h -1 v 1 h 1 z"
       style=""
       id="path176" />
    <path
       d="m 24,16 h -1 v 1 h 1 z"
       style=""
       id="path173" />
    <path
       d="m 10,16 v 1 H 9 v 1 h 1 1 1 v -1 h -1 v -1 z"
       style=""
       id="path183" />
    <path
       d="m 20,17 v 1 h 1 1 1 v -1 h -1 -1 z"
       style=""
       id="path174" />
    <path
       d="m 6,18 v 1 h 1 v -1 z"
       style=""
       id="path143" />
    <path
       d="m 13,17 v 1 h -1 v 1 h 1 1 1 1 1 1 1 1 v -1 h -1 -1 -1 -1 v -1 h -1 v 1 h -1 v -1 z"
       style=""
       id="path175" />
    <path
       d="m 26,18 h -1 v 1 h 1 z"
       style=""
       id="path192" />
    <path
       d="m 7,19 v 1 H 8 9 V 19 H 8 Z"
       style=""
       id="path144" />
    <path
       d="m 23,19 v 1 h 1 1 v -1 h -1 z"
       style=""
       id="path191" />
    <path
       d="m 27,13 v 1 1 1 1 h -1 v 1 h 1 v 1 1 h 1 v -1 -1 -1 -1 -1 -1 -1 z"
       style=""
       id="path159" />
    <path
       d="m 5,20 v 1 1 h 1 v -1 -1 z"
       style=""
       id="path148" />
    <path
       d="m 9,20 v 1 h 1 1 1 v -1 h -1 -1 z"
       style=""
       id="path145" />
    <path
       d="m 21,20 v 1 h 1 1 v -1 h -1 z"
       style=""
       id="path190" />
    <path
       d="m 12,21 v 1 h 1 1 1 1 v -1 h -1 -1 -1 z"
       style=""
       id="path146" />
    <path
       d="m 17,21 v 1 h 1 v -1 z"
       style=""
       id="path147" />
    <path
       d="m 26,20 v 1 1 h 1 v -1 -1 z"
       style=""
       id="path158" />
    <path
       d="m 6,22 v 1 1 h 1 v -1 -1 z"
       style=""
       id="path149" />
    <path
       d="m 25,22 v 1 1 h 1 v -1 -1 z"
       style=""
       id="path157" />
    <path
       d="m 7,24 v 1 h 1 v -1 z"
       style=""
       id="path150" />
    <path
       d="m 24,25 h 1 v -1 h -1 z"
       style=""
       id="path156" />
    <path
       d="m 8,25 v 1 h 1 v -1 z"
       style=""
       id="path151" />
    <path
       d="m 23,26 h 1 v -1 h -1 z"
       style=""
       id="path155" />
    <path
       d="m 9,26 v 1 h 1 1 1 v -1 h -1 -1 z"
       style=""
       id="path152" />
    <path
       d="m 20,26 v 1 h 1 1 1 v -1 h -1 -1 z"
       style=""
       id="path154" />
    <path
       d="m 12,27 v 1 h 1 1 1 1 1 1 1 1 v -1 h -1 -1 -1 -1 -1 -1 -1 z"
       style=""
       id="path153" />
  </g>
</svg>
