<?xml version="1.0" encoding="UTF-8" standalone="no"?>
<svg
   version="1.1"
   width="32"
   height="32"
   shape-rendering="crispEdges"
   id="svg155"
   sodipodi:docname="timber.svg"
   inkscape:version="1.3 (0e150ed6c4, 2023-07-21)"
   xmlns:inkscape="http://www.inkscape.org/namespaces/inkscape"
   xmlns:sodipodi="http://sodipodi.sourceforge.net/DTD/sodipodi-0.dtd"
   xmlns="http://www.w3.org/2000/svg"
   xmlns:svg="http://www.w3.org/2000/svg">
  <defs
     id="defs155" />
  <sodipodi:namedview
     id="namedview155"
     pagecolor="#ffffff"
     bordercolor="#666666"
     borderopacity="1.0"
     inkscape:showpageshadow="2"
     inkscape:pageopacity="0.0"
     inkscape:pagecheckerboard="0"
     inkscape:deskcolor="#d1d1d1"
     inkscape:zoom="38.15625"
     inkscape:cx="16"
     inkscape:cy="15.986896"
     inkscape:window-width="2525"
     inkscape:window-height="1408"
     inkscape:window-x="59"
     inkscape:window-y="1440"
     inkscape:window-maximized="0"
     inkscape:current-layer="svg155" />
  <g
     id="g215">
    <path
       d="m 15,6 v 1 h 1 1 V 6 h -1 z"
       style=""
       id="path158" />
    <path
       d="m 18,7 h 1 V 6 h -1 z"
       style=""
       id="path155" />
    <path
       d="m 19,5 v 1 h 1 1 1 v 1 h 1 1 V 6 H 23 V 5 h -1 -1 -1 z"
       style=""
       id="path174" />
    <path
       d="m 14,7 v 1 1 1 h 1 V 9 8 7 Z"
       style=""
       id="path159" />
    <path
       d="m 17,7 v 1 1 h 1 V 8 7 Z"
       style=""
       id="path156" />
    <path
       d="m 22,7 h -1 v 1 h 1 z"
       style=""
       id="path173" />
    <path
       d="m 24,7 v 1 h 1 V 7 Z"
       style=""
       id="path172" />
    <path
       d="m 24,8 h -1 v 1 h 1 z"
       style=""
       id="path171" />
    <path
       d="m 25,8 v 1 1 1 h -1 v 1 h -1 v 1 h -1 v 1 h 1 1 1 1 v -1 h -1 v -1 h 1 V 11 10 9 8 Z"
       style=""
       id="path175" />
    <path
       d="m 17,9 h -1 v 1 h 1 z"
       style=""
       id="path157" />
    <path
       d="m 13,11 h 1 v -1 h -1 z"
       style=""
       id="path160" />
    <path
       d="m 21,9 v 1 h -1 v 1 h 1 1 v -1 h 1 V 9 h -1 z"
       style=""
       id="path170" />
    <path
       d="m 12,12 h 1 v -1 h -1 z"
       style=""
       id="path161" />
    <path
       d="m 16,12 h 1 v -1 h -1 z"
       style=""
       id="path167" />
    <path
       d="m 20,11 h -1 v 1 h 1 z"
       style=""
       id="path169" />
    <path
       d="m 11,12 v 1 h -1 v 1 h 1 1 1 v -1 h -1 v -1 z"
       style=""
       id="path162" />
    <path
       d="m 15,13 h 1 v -1 h -1 z"
       style=""
       id="path166" />
    <path
       d="m 19,12 h -1 v 1 h 1 z"
       style=""
       id="path168" />
    <path
       d="m 14,14 h 1 v -1 h -1 z"
       style=""
       id="path165" />
    <path
       d="m 9,15 h 1 V 14 H 9 Z"
       style=""
       id="path186" />
    <path
       d="m 13,14 v 1 h 1 v -1 z"
       style=""
       id="path163" />
    <path
       d="m 21,15 h 1 v -1 h -1 z"
       style=""
       id="path178" />
    <path
       d="m 26,14 v 1 h -1 v 1 h 1 1 v 1 h -1 v 1 h 1 v 1 1 h 1 v -1 -1 -1 -1 -1 h -1 v -1 z"
       style=""
       id="path176" />
    <path
       d="m 8,15 v 1 1 H 7 v 1 H 6 v 1 h 1 1 1 v -1 -1 -1 -1 z"
       style=""
       id="path187" />
    <path
       d="m 14,15 v 1 h 1 v -1 z"
       style=""
       id="path164" />
    <path
       d="m 17,16 h 1 v -1 h -1 z"
       style=""
       id="path181" />
    <path
       d="m 20,16 h 1 v -1 h -1 z"
       style=""
       id="path179" />
    <path
       d="m 11,16 v 1 h 1 1 v -1 h -1 z"
       style=""
       id="path185" />
    <path
       d="m 15,16 v 1 1 1 1 h -1 v 1 h -1 -1 -1 v 1 1 1 1 h -1 v 1 h 1 1 v -1 -1 -1 h 1 v -1 h 1 1 1 1 v -1 h -1 v -1 h 1 v -1 h -1 v -1 -1 h 1 v -1 h -1 z"
       style=""
       id="path182" />
    <path
       d="m 19,16 v 1 h -1 v 1 h 1 1 v -1 -1 z"
       style=""
       id="path180" />
    <path
       d="m 25,16 h -1 v 1 h 1 z"
       style=""
       id="path177" />
    <path
       d="m 13,17 v 1 1 h 1 v -1 -1 z"
       style=""
       id="path184" />
    <path
       d="m 17,19 h 1 v -1 h -1 z"
       style=""
       id="path207" />
    <path
       d="m 22,19 h 1 v -1 h -1 z"
       style=""
       id="path206" />
    <path
       d="M 5,20 H 6 V 19 H 5 Z"
       style=""
       id="path188" />
    <path
       d="m 21,20 h 1 v -1 h -1 z"
       style=""
       id="path205" />
    <path
       d="m 4,20 v 1 1 1 1 1 h 1 v -1 -1 -1 -1 -1 z"
       style=""
       id="path189" />
    <path
       d="m 9,19 v 1 h 1 v 1 h 1 v -1 h 1 1 v -1 h -1 -1 -1 z"
       style=""
       id="path183" />
    <path
       d="m 23,20 v 1 h 1 v 1 1 h 1 v -1 h 1 v -1 h -1 v -1 h -1 z"
       style=""
       id="path208" />
    <path
       d="m 27,20 h -1 v 1 h 1 z"
       style=""
       id="path209" />
    <path
       d="m 19,20 v 1 h -1 v 1 h 1 1 v -1 h 1 v -1 h -1 z"
       style=""
       id="path204" />
    <path
       d="m 17,22 v 1 h 1 v -1 z"
       style=""
       id="path203" />
    <path
       d="m 22,23 h 1 v -1 h -1 z"
       style=""
       id="path212" />
    <path
       d="m 6,21 v 1 1 1 h 1 v -1 -1 -1 z"
       style=""
       id="path194" />
    <path
       d="M 8,24 H 9 V 23 H 8 Z"
       style=""
       id="path192" />
    <path
       d="m 14,23 v 1 h 1 1 v -1 h -1 z"
       style=""
       id="path198" />
    <path
       d="m 20,23 v 1 h 1 1 v -1 h -1 z"
       style=""
       id="path213" />
    <path
       d="m 24,23 h -1 v 1 h 1 z"
       style=""
       id="path210" />
    <path
       d="m 7,24 v 1 h 1 v -1 z"
       style=""
       id="path193" />
    <path
       d="m 23,24 h -1 v 1 h 1 z"
       style=""
       id="path211" />
    <path
       d="M 6,26 V 25 H 5 v 1 z"
       style=""
       id="path190" />
    <path
       d="m 13,24 v 1 1 h 1 v -1 -1 z"
       style=""
       id="path197" />
    <path
       d="m 16,26 h 1 v -1 h -1 z"
       style=""
       id="path200" />
    <path
       d="m 22,25 h -1 v 1 h 1 z"
       style=""
       id="path214" />
    <path
       d="m 6,26 v 1 h 1 1 1 1 V 26 H 9 8 7 Z"
       style=""
       id="path191" />
    <path
       d="m 13,27 v -1 h -1 v 1 z"
       style=""
       id="path195" />
    <path
       d="m 14,26 v 1 h 1 1 v -1 h -1 z"
       style=""
       id="path199" />
    <path
       d="m 21,26 h -1 v 1 h 1 z"
       style=""
       id="path215" />
    <path
       d="m 14,28 v -1 h -1 v 1 z"
       style=""
       id="path196" />
    <path
       d="m 18,23 v 1 1 1 1 1 h 1 1 v -1 h -1 v -1 -1 -1 -1 z"
       style=""
       id="path202" />
    <path
       d="m 14,28 v 1 h 1 1 1 1 v -1 h -1 -1 -1 z"
       style=""
       id="path201" />
  </g>
</svg>
